<mxfile host="app.diagrams.net" agent="Mozilla/5.0 (Windows NT 10.0; Win64; x64) AppleWebKit/537.36 (KHTML, like Gecko) Chrome/137.0.0.0 Safari/537.36" version="27.1.6">
  <diagram name="Page-1" id="qSqrH-M5nmVii2Ls0zF6">
    <mxGraphModel dx="2041" dy="638" grid="1" gridSize="10" guides="1" tooltips="1" connect="1" arrows="1" fold="1" page="1" pageScale="1" pageWidth="827" pageHeight="1169" background="#ffffff" math="0" shadow="0">
      <root>
        <mxCell id="0" />
        <mxCell id="1" parent="0" />
        <mxCell id="5ly0_uq5CfI01YCSIxFj-1" value="AWS Cloud" style="sketch=0;outlineConnect=0;gradientColor=none;html=1;whiteSpace=wrap;fontSize=12;fontStyle=0;shape=mxgraph.aws4.group;grIcon=mxgraph.aws4.group_aws_cloud;strokeColor=#AAB7B8;fillColor=none;verticalAlign=top;align=left;spacingLeft=30;fontColor=#AAB7B8;dashed=0;" vertex="1" parent="1">
          <mxGeometry x="80" y="80" width="680" height="520" as="geometry" />
        </mxCell>
        <mxCell id="5ly0_uq5CfI01YCSIxFj-2" value="VPC" style="sketch=0;outlineConnect=0;gradientColor=none;html=1;whiteSpace=wrap;fontSize=12;fontStyle=0;shape=mxgraph.aws4.group;grIcon=mxgraph.aws4.group_vpc;strokeColor=#B6BABF;fillColor=none;verticalAlign=top;align=left;spacingLeft=30;fontColor=#B6BABF;dashed=0;" vertex="1" parent="1">
          <mxGeometry x="120" y="120" width="600" height="440" as="geometry" />
        </mxCell>
        <mxCell id="5ly0_uq5CfI01YCSIxFj-3" value="Public subnet" style="points=[[0,0],[0.25,0],[0.5,0],[0.75,0],[1,0],[1,0.25],[1,0.5],[1,0.75],[1,1],[0.75,1],[0.5,1],[0.25,1],[0,1],[0,0.75],[0,0.5],[0,0.25]];outlineConnect=0;gradientColor=none;html=1;whiteSpace=wrap;fontSize=12;fontStyle=0;container=1;pointerEvents=0;collapsible=0;recursiveResize=0;shape=mxgraph.aws4.group;grIcon=mxgraph.aws4.group_security_group;grStroke=0;strokeColor=#7AA116;fillColor=#F2F6E8;verticalAlign=top;align=left;spacingLeft=30;fontColor=#248814;dashed=0;" vertex="1" parent="1">
          <mxGeometry x="200" y="160" width="440" height="140" as="geometry" />
        </mxCell>
        <mxCell id="5ly0_uq5CfI01YCSIxFj-7" value="" style="sketch=0;outlineConnect=0;fontColor=#232F3E;gradientColor=none;fillColor=#8C4FFF;strokeColor=none;dashed=0;verticalLabelPosition=bottom;verticalAlign=top;align=center;html=1;fontSize=12;fontStyle=0;aspect=fixed;pointerEvents=1;shape=mxgraph.aws4.nat_gateway;" vertex="1" parent="5ly0_uq5CfI01YCSIxFj-3">
          <mxGeometry x="380" y="10" width="48" height="48" as="geometry" />
        </mxCell>
        <mxCell id="5ly0_uq5CfI01YCSIxFj-8" value="" style="outlineConnect=0;dashed=0;verticalLabelPosition=bottom;verticalAlign=top;align=center;html=1;shape=mxgraph.aws3.ec2;fillColor=#F58534;gradientColor=none;" vertex="1" parent="5ly0_uq5CfI01YCSIxFj-3">
          <mxGeometry x="100" y="43.5" width="56.5" height="53" as="geometry" />
        </mxCell>
        <mxCell id="5ly0_uq5CfI01YCSIxFj-13" value="" style="sketch=0;points=[[0,0,0],[0.25,0,0],[0.5,0,0],[0.75,0,0],[1,0,0],[0,1,0],[0.25,1,0],[0.5,1,0],[0.75,1,0],[1,1,0],[0,0.25,0],[0,0.5,0],[0,0.75,0],[1,0.25,0],[1,0.5,0],[1,0.75,0]];points=[[0,0,0],[0.25,0,0],[0.5,0,0],[0.75,0,0],[1,0,0],[0,1,0],[0.25,1,0],[0.5,1,0],[0.75,1,0],[1,1,0],[0,0.25,0],[0,0.5,0],[0,0.75,0],[1,0.25,0],[1,0.5,0],[1,0.75,0]];outlineConnect=0;fontColor=#232F3E;fillColor=#E7157B;strokeColor=#ffffff;dashed=0;verticalLabelPosition=bottom;verticalAlign=top;align=center;html=1;fontSize=12;fontStyle=0;aspect=fixed;shape=mxgraph.aws4.resourceIcon;resIcon=mxgraph.aws4.cloudwatch_2;" vertex="1" parent="5ly0_uq5CfI01YCSIxFj-3">
          <mxGeometry x="270" y="10" width="50" height="50" as="geometry" />
        </mxCell>
        <mxCell id="5ly0_uq5CfI01YCSIxFj-14" value="Amazon CloudWatch&amp;nbsp;&lt;div&gt;&lt;span style=&quot;background-color: transparent; color: light-dark(rgb(0, 0, 0), rgb(255, 255, 255));&quot;&gt;- Logs: Apache, PHP&amp;nbsp;&lt;/span&gt;&lt;/div&gt;&lt;div&gt;&lt;span style=&quot;background-color: transparent; color: light-dark(rgb(0, 0, 0), rgb(255, 255, 255));&quot;&gt;&amp;nbsp;- Metrics: CPU, Memory&lt;/span&gt;&lt;/div&gt;" style="text;strokeColor=none;align=center;fillColor=none;html=1;verticalAlign=middle;whiteSpace=wrap;rounded=0;" vertex="1" parent="5ly0_uq5CfI01YCSIxFj-3">
          <mxGeometry x="230" y="58" width="140" height="50" as="geometry" />
        </mxCell>
        <mxCell id="5ly0_uq5CfI01YCSIxFj-15" value="Nat Gateway" style="text;strokeColor=none;align=center;fillColor=none;html=1;verticalAlign=middle;whiteSpace=wrap;rounded=0;" vertex="1" parent="5ly0_uq5CfI01YCSIxFj-3">
          <mxGeometry x="374" y="60" width="60" height="30" as="geometry" />
        </mxCell>
        <mxCell id="5ly0_uq5CfI01YCSIxFj-20" value="Web App" style="text;strokeColor=none;align=center;fillColor=none;html=1;verticalAlign=middle;whiteSpace=wrap;rounded=0;" vertex="1" parent="5ly0_uq5CfI01YCSIxFj-3">
          <mxGeometry x="98.25" y="90" width="60" height="30" as="geometry" />
        </mxCell>
        <mxCell id="5ly0_uq5CfI01YCSIxFj-24" style="edgeStyle=orthogonalEdgeStyle;rounded=0;orthogonalLoop=1;jettySize=auto;html=1;exitX=1;exitY=0.5;exitDx=0;exitDy=0;exitPerimeter=0;entryX=0;entryY=0.5;entryDx=0;entryDy=0;entryPerimeter=0;" edge="1" parent="5ly0_uq5CfI01YCSIxFj-3" source="5ly0_uq5CfI01YCSIxFj-8" target="5ly0_uq5CfI01YCSIxFj-13">
          <mxGeometry relative="1" as="geometry" />
        </mxCell>
        <mxCell id="5ly0_uq5CfI01YCSIxFj-5" value="Private subnet" style="points=[[0,0],[0.25,0],[0.5,0],[0.75,0],[1,0],[1,0.25],[1,0.5],[1,0.75],[1,1],[0.75,1],[0.5,1],[0.25,1],[0,1],[0,0.75],[0,0.5],[0,0.25]];outlineConnect=0;gradientColor=none;html=1;whiteSpace=wrap;fontSize=12;fontStyle=0;container=1;pointerEvents=0;collapsible=0;recursiveResize=0;shape=mxgraph.aws4.group;grIcon=mxgraph.aws4.group_security_group;grStroke=0;strokeColor=#00A4A6;fillColor=#E6F6F7;verticalAlign=top;align=left;spacingLeft=30;fontColor=#147EBA;dashed=0;" vertex="1" parent="1">
          <mxGeometry x="200" y="360" width="440" height="160" as="geometry" />
        </mxCell>
        <mxCell id="5ly0_uq5CfI01YCSIxFj-10" value="" style="outlineConnect=0;dashed=0;verticalLabelPosition=bottom;verticalAlign=top;align=center;html=1;shape=mxgraph.aws3.rds_db_instance;fillColor=#2E73B8;gradientColor=none;" vertex="1" parent="5ly0_uq5CfI01YCSIxFj-5">
          <mxGeometry x="189" y="60" width="49.5" height="66" as="geometry" />
        </mxCell>
        <mxCell id="5ly0_uq5CfI01YCSIxFj-12" value="Security group" style="fillColor=none;strokeColor=#DD3522;verticalAlign=top;fontStyle=0;fontColor=#DD3522;whiteSpace=wrap;html=1;" vertex="1" parent="5ly0_uq5CfI01YCSIxFj-5">
          <mxGeometry x="149" y="20" width="130" height="130" as="geometry" />
        </mxCell>
        <mxCell id="5ly0_uq5CfI01YCSIxFj-18" value="RDS MySQL" style="text;strokeColor=none;align=center;fillColor=none;html=1;verticalAlign=middle;whiteSpace=wrap;rounded=0;" vertex="1" parent="5ly0_uq5CfI01YCSIxFj-5">
          <mxGeometry x="174" y="120" width="80" height="30" as="geometry" />
        </mxCell>
        <mxCell id="5ly0_uq5CfI01YCSIxFj-6" value="" style="sketch=0;outlineConnect=0;fontColor=#232F3E;gradientColor=none;fillColor=#8C4FFF;strokeColor=none;dashed=0;verticalLabelPosition=bottom;verticalAlign=top;align=center;html=1;fontSize=12;fontStyle=0;aspect=fixed;pointerEvents=1;shape=mxgraph.aws4.internet_gateway;" vertex="1" parent="1">
          <mxGeometry x="700" y="300" width="48" height="48" as="geometry" />
        </mxCell>
        <mxCell id="5ly0_uq5CfI01YCSIxFj-17" value="Internet Gateway" style="text;strokeColor=none;align=center;fillColor=none;html=1;verticalAlign=middle;whiteSpace=wrap;rounded=0;" vertex="1" parent="1">
          <mxGeometry x="694" y="348" width="60" height="30" as="geometry" />
        </mxCell>
        <mxCell id="5ly0_uq5CfI01YCSIxFj-11" value="Security group" style="fillColor=none;strokeColor=#DD3522;verticalAlign=top;fontStyle=0;fontColor=#DD3522;whiteSpace=wrap;html=1;" vertex="1" parent="1">
          <mxGeometry x="260" y="180" width="140" height="100" as="geometry" />
        </mxCell>
        <mxCell id="5ly0_uq5CfI01YCSIxFj-22" style="edgeStyle=orthogonalEdgeStyle;rounded=0;orthogonalLoop=1;jettySize=auto;html=1;entryX=0.469;entryY=0.385;entryDx=0;entryDy=0;entryPerimeter=0;" edge="1" parent="1" source="5ly0_uq5CfI01YCSIxFj-8" target="5ly0_uq5CfI01YCSIxFj-12">
          <mxGeometry relative="1" as="geometry" />
        </mxCell>
        <mxCell id="5ly0_uq5CfI01YCSIxFj-32" style="edgeStyle=orthogonalEdgeStyle;rounded=0;orthogonalLoop=1;jettySize=auto;html=1;" edge="1" parent="1" source="5ly0_uq5CfI01YCSIxFj-25" target="5ly0_uq5CfI01YCSIxFj-1">
          <mxGeometry relative="1" as="geometry" />
        </mxCell>
        <mxCell id="5ly0_uq5CfI01YCSIxFj-25" value="" style="shape=image;verticalLabelPosition=bottom;labelBackgroundColor=default;verticalAlign=top;aspect=fixed;imageAspect=0;image=data:image/jpeg,/9j/4AAQSkZJRgABAQAAAQABAAD/7QBsUGhvdG9zaG9wIDMuMAA4QklNBAQAAAAAAE8cAVoAAxslRxwCAAACAAAcAnQAO8KpIE1hdHRkZW5pbmdzIC0gaHR0cDovL3d3dy5yZWRidWJibGUuY29tL3Blb3BsZS9tYXR0ZGVuaW5nAP/bAEMABQMEBAQDBQQEBAUFBQYHDAgHBwcHDwsLCQwRDxISEQ8RERMWHBcTFBoVEREYIRgaHR0fHx8TFyIkIh4kHB4fHv/bAEMBBQUFBwYHDggIDh4UERQeHh4eHh4eHh4eHh4eHh4eHh4eHh4eHh4eHh4eHh4eHh4eHh4eHh4eHh4eHh4eHh4eHv/CABEIAlgCWAMBIgACEQEDEQH/xAAcAAEAAgMBAQEAAAAAAAAAAAAABAcDBQYCAQj/xAAaAQEAAgMBAAAAAAAAAAAAAAAAAQUCAwYE/9oADAMBAAIQAxAAAAG4AAAAAAAAAAAAAAAAAAAAAAAAAAAAAAAAAAAAAAAAAAAAAAAAAAAAAAAAAAAAAAAAAAAAAAAAAAAAAAAAAAAAAAAAAAAAAAAAAAAAAAAAAAAAAAAAAAAAAADEMOSUQcsnCevsLOZgAAAAAAAAAAAAAAAAAAAAAAAAAAAAAAAAAIcyEbGPJ0mxs5FE2DZO1iyPVS1srPCJKJJPQAAAAAAAAAAAAAAAAAAAAAAAAAAAAAAAEKbCNlpN3pN6mh287ax6ieGP0AqWx+cbCFsHiQZHyITWHMAAAAAAAAAAAAAAAAAAAAAAAAAAAAAAIU2EbLSbvSb1NDt5Ae/A7iwKHlVMXs4rs+eR4+y+aGD3G8kt59AAAAAAAAAAAAAAAAAAAAAAAAAAAACFNhGy0m70m9TQ7eQAAG21LBbvR/n/AKaji2vGv2dE1/qdgxffsKUewAAAAAAAAAAAAAAAAAAAAAAAAAAIU2EbLSbvSb1NDt5AAAAA99rw7RF8SKJsnnXW6vaeKpHyfMBKRZJ9AAAAAAAAAAAAMRl8Rc58+5fg9RJJ6AAAAAAAAAhTYRstJu9JvU0O3kAAAAAB0vNdL5otvDmrrk1iqtsTNJh7F40LP4jE1iygAAAAAAAA+H3zHHnLK9A47ZHWe6EvTfGSPLg+TKWAAAAAAAABCmwjZaTd6TepodvIAAAAADpea6XzRbddWLXXNuEy4nWTYHd0JOqIvJyPW88iYtj51MXqKJT59AAAAAHzHHMuORJMWVAlP0PB8Zaa+g54tsH6F/PX6FrM88GdBp9ksAAAAAAAACFNhGy0m70m9TQ7eQAAAAAHS810vmi266sWuubcIOtkBvNGwi5N5+f+uoVpY4s6ka7JNjYvf2FIMoAD5GJEX1NIswGLk6z92HcV7gXOAboAfoX89foWqzzwZ0Gn2SwAAAAAAAAIU2EbLSbvSb1NDt5AAAAAAdLzXS+aLbrqxa65twg62QAAMvd1+88X3lo2xOdddDl/atrpWWEScGGUR5mUECtPRj3lYc/8utYeuAAAH6F/PX6Fqs88GdBp9ksAAAAAAAACHMik/T7X3m/P65K36toxYSAAAAA6Xmul80W3XVi11zbhB1sgAAAAbyyKbeCP0Aqyx+bTDkNEdVX/AA+ut9efAWWIAAAAD9C/nr9C1WeeDOg0+yWAAAAAAAAB59CJOxRTYocw5KuryxWihFgcJ0TEPRIAADpea6XzRbddWLXXNuEHWyAAAAAAs+sLPrI7GhL7oSnw1gutYAAAAAD9C/nr9C1WeeDOg0+yWAAAAAAAAAADFHm/DxJhYzYwZOXJVvI/oDR3am280d8DOQHS810vmi266sWuubcIOtkAAAAABZ9YWfWR2NCX3QlPhrBdawAAAAAH6F/PX6Fqs88GdBp9ksAAAAAAAAAAAD59EVK8mX1rspM5LrW1RsG++E6FX7LiuJdLzXS+aLbrqxa65twg62QAAAAAFn1hZ9ZHY0JfdCU+GsF1rAAAAAAfoX89foWqzzwZ0Gn2SwAAAAAAAAAAAAAMWUQpPvATWumEau7Sex+f+l7/AJy5d/XVi11VuEHWyAAAAAAs+sLPrI7GhL7oSnw1gutYAAAAAD9C/nr9C1WeeDOg0+yWAAAAAAAAAAAAAAAD5GlCLNxRTYoHom11Ysf0qHdxxXXPA3yAAAAAs+sLPrI7GhL7oSnw1gutYAAAAA2+LUfoXQdRR7PMGTi8GecAAAAAAAAAAAAAAAAAHyJLjE84Le73Wcz22SqOZ/QHOWyom21N7IZAAAFn1hZ9ZHY0JfdCU+GsF1rAAAHs8S+ysevy4zu/Sn2PkaPqn1J+ewAAAAAAAAAAAAAAAAAD5GkxifXVi11YuE2esdXNs9P+f+iootzjN/tqlRMW+K/v3DvXm2kABZ9YWfWR2NCX3QlPhrBdawADb2f5Z4Kztupth4heXKTEySDFmAAAAAAAAAAAAAAAAAAAD5GkxifXVi11YuEHWyB67PimiL2lUP3/AD7pa5tf35n5/W7XHRNSPdKz6ws+sjsaEvuhKfDWC61nvutTjbH7KVT7PPpFr85MLHKI8n0AAAAAAAAAAAAAAAAAAAAAPkaTGJ9dWLXVi4QdbIAAGzsapnij9AeajsjnGgr69o/oUPZ+o3XuddQl903W4cr1Pe9RsjUbd4q8/eCN6xnHny/QAAAAAAAAAAAAAAAAAAAAAAD5GkxifXVi11YuEHWyAAAA9eR2lhUTIqYvhw3bc89kbQk/IXg9+ZHs8+gAAAAAAAAAAAAAAAAAAAAAAAA+RpMYn11YtdWLhB1sgAAAAALQq+z6yOx1mz1/KJPoAAAAAAAAAAAAAAAAAAAAAAAAAAPkaTGJ9dWLXVi4QdbIAAAAACz6ws+sjsdfsNfyiWAAAAAAAAAAAAAAAAAAAAAAAAAAD5GkxifXVi11YuEHWyAAAAAAs+sLPrI7HX7DX8olgAAAAAAAAAAAAAAAAAAAAAAAAAA+RpMYn11YtdWLhB1sgAAAAALPrCz6yOx1+w1/KJYAAAAAAAAAAAAAAAAAAAAAAAAAAPkeTENhXVi6n1qVb/QdeDZIAAAACz6ws+sjsdfsNfyiWAAAAAAAAAAAAAAAAAAAAAAAAAABFlfD1k1/sm8r1TapDXX5w/QK7Z8FxISAAAWfWFn1kdjr9hr+USwAAAAAAAAAAAAAAAAAAAAAAAAAAAMeQQpPvCTGumGCvLPetQHy5636NoBYSAAs+sLPrI7HX7DX8olgAAAAAAAAAAAAAAAAAAAAAAAAAAAAA+RpQiTsUU2KFNOVrq78dmoNYnA9Ewj0ys+sLPrI7HX7DX8olgAAAAAAAAAAAAAAAAAAAAAAAAAAAAAAAxxpvw8SYeI2MPPllWHH3/prtTFn8f2Hrdjr9hruYTAAAAAAAAAAAAAAAAAAAAAAAAAAAAAAAAAPn0RfkvyZfWuyE3B9Sza7KhnAAAAAAAAAAAAAAAAAAAAAAAAAAAAAAAAAAA8+hgZx49gAAAAAAAAAAAAAAAAAAAAAAAAAAAAAAAAAAAAAAAAAAAAAAAAAAAAAAAAAAAAAAAAAAAAAAAAAAAAAAAAAAAAAAAAAAAAAAAAAAAAAAAAAAAAAAAAAAAAAAAAAAAAAAAB//8QALhAAAQQBAQgCAgICAwEAAAAAAgABAwQFBhARMDIzNDVQIEATIRJgIzEUIoAk/9oACAEBAAEFAv8A2YRsy/MK/MKGQX/o8j7hijZx3MtzIoQdP/OJAbF/RbCb/VqYK8FeeKePZJCzr+RRoSZ/6HPzLPeIrWJq8mOz0ciF2Jk7M6OF2QybnZ9/9Bn5lnvEbKGQs03x2XrWtpAJJ4zBBKz/ANAn5lnvEfDHZmxWVG/WuDsOISX+SNAbF76fmWe8R8QIgLHZ4wVeeKxHskhZ1/Io0JM/vJ+ZZ7xHzrWJq8mOz0ciEmIU7M6OF2QybnZ9/up+ZZ7xHBoZCzTLHZeta2kAknjMEErP7mfmWe8Rw8dmbFZUb9a4Ow4hJf8AeJCW9vbT8yz3iOIBEBY7PGCrzxTx7Hf8UrSC63/ecmZflFNIKZ/qT8yz3iONWsTVpMNl/wDlyIhEk8MboojFBL9sjZlvORDAy/FGnijRC8Sb9t9KfmWe8Rx9M+WRSxjJsOMTTicaCRi+u7syc3Jwh2yyRxALsQzNvigfeH0p+ZZ7xHH0z5Zau/U2Ozk8Cp24LQbJIhJbzjQmz/UKVDEROIsLL/Syeer11du2bh1O1Llrcn0p+ZZ7xHH0z5Zav6yikkiPHZ9RSBKGw4UxkKZ9/wBA5GFMMkiCMQ25LK1aTZLL2ru2p2pctbk+lPzLPeI4+mfLLV/W207diqeOzkE6b97CZiYoiFxk4pGzLecijiEdty5XqR5PPzzp3d321O1Llrcn0p+ZZ7xHH0z5Zav63xx+Us01j8pWubTATTjJGgkYuC7syc3Jwh2yyRxBk9RKaWSaT41O1Llrcn0p+ZZ7xHH0z5Zav63yb9LHZyeBU7cFoNkkQkt5xoTZ/kUqGIicRYW2ZPPV66u3bNw/nU7UuWtyfSn5lnvEcfTPllq/rcCKQ4jx2fUUgShsOFMbi7Oz7DkYUwySIIxDbksrVpNksvau8Kp2pctbk+lPzLPeI4+mfLLV/W4VO3PVPHZyCdN+9hCxMcRCt0xKOIR23LlepHk8/POnd3fhVO1Llrcn0p/9rNAR4t/1x9M+WWr+txMflLNNY/KVrnxlkjiDJ6iU0sk0nEqdqXLW5PpWG3hG+8FkMXWuLIYuzT42mfLLV/W4rfpY7OTwKpZhtRLK52Gq927YuHxqnaly1uT6TtvYC/E4kxNsyODgnVypPVPh6Z8stX9bj6T7BZXyXHqdqXLW5Ppu29ODi4TbZYwlDI4BSxyRHwdM+WWr+tx9J9gsr5Lj1O1Llrcn1SBnW441HKJbblSC0GRwc8Cf9P8APTPllq/rcfSfYLK+S49TtS5a3J9c42JMUkaCQT25DF1rjZDF2afz0z5Zav63H0n2CyvkuPU7UuWtyfZKJDKQuJMTJ/2sjg4J1cqT1T+GmfLLV/W4+k+wWV8lx6naly1uT7TszpwcXCbbLGEoZHAKWM4j2aZ8stX9bj6T7BZXyXHqdqXLW5PuEDOtxxqOUS23KkFoMjg54F/paZ8stX9bj6T7BZXyXHqdqXLW5PvHGxJikjQSCe3IYutcbF4yxSy61f1uPpPsFlfJcep2pctbk9AUSGUhcSYm26v6vH0n2CyvkuPU7UuWtyehdmdfjcX/ACSsop/5SKxBFPHkcCYIxIC4uk+wWV8lxcfjrV0sZhKtTZP0oW3B6QN3/J23qFa4ORw1itxdJ9gsr5Lh1q81mTGaejjQCICndmRl+Um/16SD9zLU80sFrHZ4DQEJisjh61pX8fZpvwtJ9gsr5LggJGWM09JIq1eGtHskmZl/EpELM3pq/VWr+sqN6zTLHZmvZ2ELEORwMcis15q8nA0n2CyvkuBjMJatrH46rSHYcoiv8kiAGH1FfqrV/W247L2aioZCtcZWIIp48jgTBGJAXy0n2Cyvkvlj8dauljMJVqbSMRTyGaCJm9VX6q1f1vgLuL47PSRqtYhsxq9QrXByOGsVflpPsFlfJfCrXmsyYzT0caARAU7syOZ3Qx73Zt3q6/VWr+t8q88sEmOzwEgITFZHEVrSv4+zTfbpPsFlfJbAEjLGaekkVavDWj2STMy/iUiEWb1tfqrV/W4FG9ZpljszXs7CFiHI4GORWa81eRaT7BZXySxmEtW1j8dVpDsOURX+SRADD6+v1Vq/rcLHZezUVDIVrjKxBFYjyOBMFpYSCkpMdau5TGYSrU2kYinkM0ETN7Gv1Vq/rcMXcXx2ekjVaxDZj+LuzI5ndDHvdm3eyr9Vav63FrzywSY7PASAhMUU8bF+d3X8SNxFm9pX6q1f1uPpPsF/H/6d3tq/VWr+tx9J9gj7n21fqrV/W4+k+wR9z7av1Vq/rcfSfYI+59tX6q1f1uPpPsEfc+2r9Vav63H0n2CPufbV+qtX9bj6T7BH3Ptq/VWr+tx9J9gj7n20HVWr+tx9J9gj7n2wfqysjQgvBkcTZqcfSfYI+59tKz74zYx2ZHC17Cu0rFQ+JpPsEfc+3IHZwm/eyQAkDI4BnU0UkJ8LSfYI+59wQs63HGo5mLbaqwWY8jgpok7Oz8DSfYI+590cbEmKSJRyCbbMhja1xsjibNTgaT7BH3PvDiTSkCEmLbkcLXsK7SsVD+Ok+wR9z7123p43Fwm/eyQAkDI4BnU0UkJ7dJ9gj7n35CzrccajmYttqrBajyOCmiTs7OtJ9gj7n+gnGxJikiUcgm2zIY2tcbI4mzUWk+wX+7H9DOJNKQISYtsMMUOwP3L/AER23p43F2n3L8sa/LGimZ1EO5v6M7MvxivxCmFm/wDb/wD/xAAfEQACAQUBAAMAAAAAAAAAAAABAhEAIDBAUBBRgJD/2gAIAQMBAT8B+uk0DPEL+Jwi1Ez6nAJii02pvTRa9N58Cbz4E3nwJvPgTefAojee4LQEb72BZoLHBfwCaC8NqCfP4kf/xAAuEQAABQIEBAYCAwEAAAAAAAABAgMEBQAhETAxNCAyQHEQEiIzUJFBQhNRcBT/2gAIAQIBAT8B/wAdRKB1ClH8jTqJUSuS4fCtveJ3DwdR6Ti42GnLBVvrp8G294ncOB1EpqXTsNLt1EBwOHwLb3idw4TkKcPKYKdQ/wCyP1RyGIOBg69t7xO4ca7ZNcMDhTuLOiHmLcOube8TuGQ825+1NEP+hUE6csVW/MFs9NI6g4FCnDX+AoYjmNveJ3DIebc/aordFoQxp1EEPdKw0sgoiOBwywATDgFIRwjdSiEKQMC1KaFzG3vE7hkPNuftUVui+KiZVA8pgxp1DiHqR+qMUSjgOQgwOpc1gpFuREPSHjKaFzG3vE7hkPNuftUVui8Lhqk4DA4U6i1EbluHCg1UW0pBkmlfUeGU0LmJn8hwN/VNZFJe2g8bzbn7VFbovG6jkl76DTlkq35tKTSMoOBaQjilue9acUpoXOayiqNjXCm7pJwGJB4Xm3P2qK3RciX21RfObIlNC55TCUcQprMCHpW+6TUIoHmIOPi825+1RW6LkS+2qL5zZEpoXoUV1ERxINNZch7K2GgHGnm3P2qK3RciX21RfObIlNC9G2fKt+UbUaRScNzhoOFRW6LkS+2qL5zZEpoXpWa4IKgcaQcprhiQeOX21RfObjMYChiNPnJVsAL+OlbICup5ApRFZoe9qazH6rfdEOU4eYo8Mvtqi+c3EvIEJYlxpVY6o4mHpordFo5CnDAwU6h/2R+qIqs0Paw01lk1LKWHgl9tUXzm4F3aaPel3ai2unURW6L4rt01wwOFOolRO6dwps/WbW/H9U1kEnFgsPhL7aovnN4KrESDEw0vIHPYlg6qK3ReFywSca605YKt76h/dNZZRKx7hT9ymu1xINRxgKJhGl5L8J0YwmHEerit0XjdRSatyWGl2yiA4HDrordFyJfbddFbouRL7brordFyJfbddFbouRL7brmKxUFgObSk1SKh5iDjxy+269JY6I+Yg01lyH9KthoBAbhwy+2+BbPVW/KNqaySS9tB4JfbfBtZRVGxrhTd2k4D0D4S+2+EKYSjiFNZgQ9K33UkqRVr5iDj8NiOn+Uf/8QANxAAAQEEBQsEAgICAwEAAAAAAQIAAxARBBIhMXITIiMwQEFQUVJhcSBzgcFgoTKCQmKAg5GQ/9oACAEBAAY/Av8A4L1liZa4NcGuk1to/BgIKfPJ1U3yau5WFp7RmnNLSWPwRPmD/wAfbV3LwpLBFKGTV1bmmkgiFrTdn4aquw/gSfMH/j7jolzT0m5glRyTzkY2hs20fgKfMH/j79IQ80rvkbw03S7d6TfHu1to4+nzB/4+/UFIUUkbwwRSxXHWL2ruVhY7RmnNLSWOOp8wf+PvUV3KyksEUoZNXVuaskgg7xC1puz8NVXYeNp8wf8Aj71WjXNPSbmCVHJPORjaGzbRxpPmD/x96wIXpXfI3htEu3pN8e7W2jjCfMH/AI+9bWQSkjeGCKWK46xe1dysLT2jLcWv4Be1+yp8wf8Aj719dyspLBw9RJ7K8XGGcJtc00GfZpGw7Zm3c2ziS38Q38WmDm7InzB/4+9gRhMA7UsBSrhzjaGszk7TJAm03lpiVvFhKRvLBQuLHZE+YP8Ax97AjCYUcjkWCKRpUftqzl4D23xssLZ93PZZC0tN5dyawRKKPpnn6DVn7wnkNwZ1gDHZE+YP/H3sCMJhR8JhXdrKVcwwRTB/cNXdrCk8xGbuwtJYlsXSGsEZKVXedCWqlWTd9CYusAY7InzB/wCPvYEYTCj4T6Kzl4R23MEP9Ev9FpiEiGm7u5NJVh12Zdza20xrv3gT23li7o2hd8/8i0zafQ6wBjsifMH/AI+9gRhMKPhPqklVd30qaSVVHnSY2huoauSBNpvLTEreLCEjeWLugj/sLF49WVqO8+p1gDHZE+YP/H3sCMJhR8J9djBFI0qP2GrOVg9t4jZYWz7ufrkLS03l3JrBEoo+mefoNWfvCeQ3DUOsAY7InzB/4+9gRhMKPhOpC3ailQ3hgimD+4YLdqCkneIzRYWksS9HSGsEZKVXedCWKSrJu+hOqdYAx2RPmD/x97AjCYUfCdXWcvCO24sEP9Ev9FpiFoabv/xpVZNbaY137wJ7byxd0bQu+f8AkWmdW6wBjsifMH6UJKlEXBrdejCYUfCdbJKq7vpU0kqqPOlXpK3iwhI3li7oI/7FMVvVlajvOtdYAx2UGE1JqPOpLTUmu76k65GEwo+E66xgh/pUfsNlHKpiCnTkZV6P/A1Z+8J5DcNe6wBjssj/ABawxK3GiX+i1V87I77jrEYTCj4TsC8cKR7h2B1gDHZpoMmk8sMSh4kKSdxYroZ/oWKHiClQ3HVIwmFHwnYF44Uj3DsDrAGO0Zl3JrbDGq+dg994Yro+lRy3hpHUIwmFHwnYF44Uj3DsDrAGO1dQawxmpNR51paZTXd9SfWjCYUfCdgXjhSPcOwOsAY7XMWFpPLubWGFrFbjRPP0WqvnZHfcfSjCYUfCdgXjhSPcOwOsAY7bNBk0nlhiUPEhSTuLFdDP9C1R4gpUNxijCYUfCdgXjhSPcOwOsAY7fmXcmtsMar52Fd94Yro+lRy3iCMJhR8J2BeOFI9w7A6wBjwHqDWGM1JqPOtLIKhWdyOeIUfCdgXjhSPcOwOsAY8CmLC0nl3NrD6KP4OwLxwpHuHYHWAMeCTQZNaAWqKTKFR8gLHdiuiGuOg3tVWkpI3HXLxwpHuHXaJGbvUbmC1jLPeZuEFcG+PRpUZ3UL2K0aV3zF+tXjhSPcOsybh2VnsweUw5RXQLmCUgJA3CFrSH8RwZRhR1uVlCqpuYIpYqHrFzVkKCgd4gVJGSecw2kRm9Qu1a8cKR7h1QShJUTuDB5TDk09AvbJuHYQntGSc4tNZ4OuFHwmE3K7N6TcwQ80TzkbjCqoAhiuinJq6Tc1R8gpOpXjhSPcOpC16F1zN5bQozt6jfHu1tg4SuFHwn0VScq76S2jXJXSb4VHyAtPdiuiGuOg3sUqBBG4+teOFI9w+vRIzd6zcwWsZZ7zO6NpbNsHC1wo+E+maSQWCKUMonq3tXcvAoQk9RnblC9itGld8xePUvHCke4fTk3DsrV2YPKYcoroFzBKQABuELWk7Hy1Zdp4YuFHwn113KyhXZgiliqesXMFIUFA7xAqSMk85htIiaeoXeheOFI9wxCUJKidwYPKYcmnoF7ZNw7CE9oyTnFprPDlwo+E6mbpdm9JuYIeaJ5yNxhVUAQxXRTk1dO5qj52UGC8cKR7hgFr0Lrmby2hRnb1G+PdrbBxBcKPhOrCScq76S2jXJXSb4VHyAtPdiuiGuOg3s8SoFJDy4wpGSRm5QzWbmC1jLPeZ3RtLZtg4kuFHwnWTSZFgilDKJ6t7V3LwKHqtaTsfLVl2nia4UfCddXcrKFdmCKYKh6xc1ZCgoHeIFO8NmoLTWeKrhR8J2BeOCp8XXCj4TsC8cPji64UfCdgXjh8cXXCj4TsC8cPji64UfCdgXjh8cXXCj4TsC8cPji64UfCdgXjh8cXXCj4TsC8cPji64UfCdgXjh8cX+IAPZhQ/iobmKpZR31J168cPji4UNzTESt1oXna4tJ8iXI7jrV44fHGKyDJpLEu8ShaQpJ3FiuhmX+hao9QUK76teOHxxrMu5NI2GNR87CmK6NpUct4aREjqV44fHHOoNZHPTVX1i9q0so76k6heOHxx2YsLSWJjm1hiVutE87XFpPkSG47j6l44fHH6yDJpLEu8ShaQpJ3FiuhmX+hao9QUK7+heOHx+A5l3JpGwxqPnYUGK6NpUct7SIkYLxw+PwPqDWRz01V9YvYqllHfUll44K7fgkxYWksTHNrDE5JATWMzKCj+DVkGTZ6W/kG/kGki0/hNzXf8AOD//xAAsEAABAgQFBAMAAwADAAAAAAABABEQITFRQXGhsfAwQFBhIIGRYMHRgOHx/9oACAEBAAE/If8AmZUyioKoJQL/AMGdihpwXX/nL/zkGk76W64QaR/gswdZyyBgFlRaUhzVkDGzEvgivv1IDI/wPQIaHsWQt6FNbWdf+INNUwQZGAhgBCIy3sisCABL+A6BDQ9kcVjOeSnqOPI5GIlhFG3P14qUmRQL+f0CGh7Pi9gjxfwKYLygIzshrgiNVhBpHz2gQ0PZ8qJQiMQnx6OAzGKBDbiVPgivv1IDI+c0CGh7OgJerzI5pqai2vOyFqFiODAQwAhEZb2RWBAAl5rQIaHs6WaJnl/iz1HkcjESwijbn68VKTIoF/MaBDQ9nUeyR4v4FPAd8oIzshrgiNbhCeHl9AhoezqhM6QIxCfH+kZ3QMbMSgZhihGM4wWAEAND31QK9JEYEA07TQIaHs64h6/oc1XlhGGbQGsHMmylrIjJrkB6ZgUCDTuhcyhR2uKrMwIoMwZI4CD7YI5nZ6BDQ9nYczaA/nOYxCsa6Pv/AHEOr24yZU3Yp7nqwQAAYBhCu2wjBHBcDg+kxQHLSTB2egQ0PZ2HM2gZLCCGyMwpwL5Mv3ivb80BmIzTNhYM9hC5HsyQKoT1zAJ/DWExBAQJAEkgAVKlqHJwdbFesxZZAXH2Wg7Q0CGh7Ow5m0ORuIDYWoRltP7hD5WoR4EAhiHCnuerBFftEMJHsB1VND/ahWNeJdbpHP3ZGjYJJfZxjx9loO0NAhoezsOZtDkbj4e1ZqLMKUO+TrYIgAICDiIMxEJ3D3FPazECD1BcyhRmuKaZsx9SRsAm8EkuCSICElSfhx9loO0NAhoezsOZtDkbj5GheFL6shQvCv8AV4jMa6mg/tQ6vRGTKm7FPc9WCAADAMIV21EYIYmODOw/1V8dEf5cfZaDtDQIaHs7DmbQ5G4+ZEnIgjEJoRv8nXt/dwIzTNhGjPYQuR+JIFUJ65gE/hrCYggIEgByWAUtQ8QdbFfmauQOhx9loO0NAhoezsOZtDkbjo0++EZfk4HuFT74R4EAhiHCDMvqwU3YhkjAdVTQ/wBqFY14l1uTD92Rr2SS+79Lj7LQdoaBDQ9nYczaHI3HT9vzuApQ7/JkQAEBBxEGIIhTVf2Q1ZKmmbMWs3DYBM4JOCyICEk1J6fH2Wg7Q0SAMgWBMzCAkQBBFQevzNocjcdU0LwpfVkKF4Vvq/xrtqKwQxMcGNh/qr56K/V4+y0HaDggDrQFG0K33dGj+Qvu3W5m0ORuOsRIEiCMQmhkeJOtihvDZkxBtCl1RwP7XqsWWQOvx9loO0HgI5B+psnIIiBAIIIcFPBFsbWC9PzsD1OZtDkbjsNf2EOBv2HH2Wg7UGE1N2Ke17sECCHBcQr18A6/Z39iq7bAN0uZtDkbjsNf2EOBv2HH2Wg7cFzCFWe4pJkzH0/OwKeEea9oCQBBFQehzNocjcdhr+whwN+w4+y0Hcg6ikh/tQrGtE0tAE/u6NG2BS+7fPmbQ5G47DX9hDgb9hx9loO6CAaoT0zEJvD2E5BEQAAQAIOBTwwbAbWC9OzsD8eZtDkbjsNf2EOBv2HH2Wg7wGTCm7FPa92CBBDguIV+eAdfs7+xR/VYBo8zaHI3HYa/sIcDfsOPstB3wLmEKs9xSTJmPp+KMgp4R5psUQSIIIIwXM2hyNx2Gv7CHA37Dj7LQeAB1FJD/ahWNaJpaFT7uhRmsUaY2hyNx2Gv7CHA37Dj7LQeBCAaoT0zEJvD2E5BEfCu5uOw1/YQ4G/XC4Wy0CDwQZMIkCjQdpSTFwnWBMbcAonx/pGRxRRUEBiOtr+whwN+s2jj1YpgAGH+AgYD2IZMHhQIZUgxaDAHZKD7TGSPBkzHV1/YQ4G/UHSLZTNNx1cDndSQ5ADAQAOQARgVyt0LM8IaIBiwEoDWyaXsJseyTZjBD9IRHBhMUcORzCmmOGeXT1/YQ4G/SKUJgByU+HUxOdkOgSyufwRX34kFYDwpotEIcjcQdBzgvpP4B8X8DA2JdQQ4Kam+2/4iL3+JHLo6/sIcDfotBJMP8AmGE+7OMrJewInRYQaQ8OaLRCHI3HwbPeWYyKzXMsP9gTGzAE+N9Iyuil2YgYj56/sIcDf5tpt+BFNIAw5ZBES4gjbD78VOTM3QDeINFohDkbj4hoqoQWIT21nT/qHPWxmMxBorIgTUSPB/QfLX9hDgb/EN9CKZpuOrgc7oANmAGAgJcgAiM97IrggAS8UaLRCHI3HzBhZiSbXp4jMYKf0IEcGE1Rw5HMLJMzy+Gv7CHA3jJKEAOSnw6mJzsh0CYBXP4Ir78SAyHjDRaIQ5G46LpecEn8C+fgYGxLqCHBTW1V9eVkVe9aHKGv7CHA3gyFzD/AJhhzs4ysl7AidFhBpDxxotEIcjcdOWM4sxkVhuZywgSGzAKJ8ergMjiigyOBiJCA2OMMRmmEAYcsgiJcQRth9+KnJmboBvHmi0QhyNx1A0wVCCxCe2t6f9Q563qM4MLQAAkA0BLkAERnvZFcEACXkTRaIQ5G46wMLMSTatkmzGCCaQiOIEaTjBkQKj2sOVkBkPJmi0QhyNx2BGtj2EJGVZhABh5U0WiEORuOw1/YeYhotEIcjcdhr+w8xjRaIQ5G47DX9h5jGi0QhyNx2Gv7DzGNFohDkbjsNf2HmMaLRCHI3HYa/sPMY0WiEORuOw1/YeYxotNDkbjsNf2HmcAcJrAMCoiafRlqZjDr6/sPM4Kpp+kBaBmGKlpJZ+wTm4YM/s6uv7DzOIcKawWK38IEEOC8KoPAOFO335fRR+JMA6ev7DzeCzCBrk9xflOYmQTgcRkU8s1OaaMjgVBFOjr+w87gVFKP8AVTAnaJKbbJ/7ImclqZjDoa/sPPYgFAP6gX1yCBOIiBAIYzClpPZ+wTmuAz+z5a/sP4BghNTACxW/hAghwXhVB4Bwp2ur8voo/EmAfDX9h/AsFmEDXJ7i/KcxtBI4jIp5ZqW/9RkUCoMNf2H8EwKilH+qmBO0S422T/2RPItTMYLX9hBy+9P4GQCgH9QL65BAnERAzDFABBsFBMJfGP8ABQhNTACNIYewgYO1AhhAbiqdf4OVUInwL0lSB/zf/9oADAMBAAIAAwAAABAAAAAAAAAAAAAAAAAAAAAAAAAAAAAAAAAAAAAAAAAAAAAAAAAAAAAAAAAAAAAAAAAAAAAAAAAAAAAAAAAAAAAAAAAAAAAAAAAAAAAAAAAAAAAAAAAAAAAAATTiQAAAAAAAAAAAAAAAAAAAAAAAAAAAAAAAAABTpG6QQAAAAAAAAAAAAAAAAAAAAAAAAAAAAAAABSgJPoxwgAAAAAAAAAAAAAAAAAAAAAAAAAAAAABSgIICHRgggAAAAAAAAAAAAAAAAAAAAAAAAAAABSgIIIIJGYygAAAAAAAAAAAAAAAAAAAAAAAAAABSgIIIIIJFBzQAAAAAAAAAAAAAQgyQAAAAAAAABSgIIIIIIJWzDzwgAAAAAAAAAARFpgAAAAAAAABSgIIIIIIJWgKW4wAAAAAAByzz0CqgAAAAAAAABSgIIIIIIJWgIIFmRywAAAAicIIKqgAAAAAAAABSgIIIIIIJWgIIIJFxwDxz+kIIIKqgAAAAAAAAATS8IIIIIJWgIIIIIIX7kMAIIIIKqgAAAAAAAAAACBw0IIIJWgIIIIIIJWoIIIIIIKqgAAAAAAAAAADTix0kIJWgIIIIIIJWoIIIIIIKqgAAAAAAAAAAAAABAaUBWgIIIIIIJWoIIIIIIKqgAAAAAAAAAAAAABDzQzugIIIIIIJWoIIIIIIKqgAAAAAAAAAAAAAAAAATCokIIIIIJWoIIIIIIbfQAAAAAAAAAAAAAAAAADiqYkAIIIJWoIIIIIuyRgAAAAAAAAAAAAAAAAADygDeYUgIJWoIIJv3DSAAAAAAAAAAAAAAAAAAADygIINGwsJWoIc1hhAAAAAAAAAAAAAAAAAAAAADygIIIJHol2z/AJw4AAAAAAAAAAAAAAAAAAAAAAA8oCCCCCAjmooggAAAAAAAAAAAAAAAAAAAAAAAA8oCCCCCCCFsgAAAAAAAAAAAAAAAAAAAAAAAAAA8oCCCCCCCV8AAAAAAAAAAAAAAAAAAAAAAAAAAA8oCCCCCCCV8AAAAAAAAAAAAAAAAAAAAAAAAAAA8oCCCCCCCV8AAAAAAAAAAAAAAAAAAAAAAAAAAAgsLCCCCCCV8AAAAAAAAAAAAAAAAAAAAAAAAAAAEUUJCCCCCV8AAAAAAAAAAAAAAAAAAAAAAAAAAAAAIw8NCCCV8AAAAAAAAAAAAAAAAAAAAAAAAAAAAAAAwosHCV8AAAAAAAAAAAAAAAAAAAAAAAAAAAAAAAAEQmtf8AAAAAAAAAAAAAAAAAAAAAAAAAAAAAAAAAAQwE8AAAAAAAAAAAAAAAAAAAAAAAAAAAAAAAAAAAAgAAAAAAAAAAAAAAAAAAAAAAAAAAAAAAAAAAAAAAAAAAAAAAAAAAAAAAAAAAAAAAAAAAAAAAAAAAAAAAAAAAAAAAAAAAAAAAAAAAAAAAAAAAAAAAAAAAAAAAAAAAAAAAAAA/8QAHxEAAgEFAQEBAQAAAAAAAAAAATERABAgMEBQYHBR/9oACAEDAQE/EPx6Pj48iPIj1yAdTjyi0bFX8KJJdOeUYRpCFRGu55RlGIaExOeUZxYgHRSs3PKNKaHPBOI0poc8U3GlNDnlGlNDnuTMCVR255zTI5dATmFotOKYEoDoDCMUsRKGH1DSMgRaAQusZx3jxh4w8YfHT9vP6f8A/8QAKhEAAQICCAcBAQEAAAAAAAAAAQARMbEhMEFRcYGhwRAgQGGR0fDhUHD/2gAIAQIBAT8Q/wAdhgAHkpy34ZW5eEQ1B/ifYvHByB3Rvf8AUo8SD3hDO7+H9i8cSAQxTjtR9ZeFQ3SOB/g/YvHKdhEGwqKXNsfflFZgIsPX/YvHPSXd7RgUfHZ8jG/Lx132LxUaxJDIFnenAEo07l4Q/M6+mWKOS8S+FZ9i8VGsSU5IoAMQ4TmbtWH1LsqF4zwNWMAcpsOwuEcymXMFrjtWfYvFRrElOSPEvCA3p0I4vRyPtHw2IsNQ17h4TEpr7eOuO1Z9i8VGsSU5I8sUC+0Zp2y+IxHrlIUWF5gtZB2HLrjtWEEh3A+C6Z3dk7G2fPrElOSPO7s7o3Fs+6OuD3hD8zTX3KtvXWfqAAMObXHaubM/iMD7UUC60ZcusSU5I1ETELQb1GuO1ePHYi0JtA4uRzHpBYAduOsSU5I1ETELQb1GuO3Q0LxniE1i71h9S7oAOC4WsSU5I1ETELQb1GuO3Rm2cuGH5knA0qg4WG2fZTkjURMQtBvUa47dKFpwH1DKk+7WjEc8TELQb858dgiwNDqb+lGjMS+gdAhAlYRDIqGHJuPXhDYRBtHLExC0G/KS1JTzsH6qUKXTTkiiEQg2FBLlzbH35RoCNoDbiE07UfWflAghxxiYhaDfkoQl7g3uVCE1wb39ROSPGlumMCnXCrR7y8IwwvebXIECdk7X8ImIWg34UKU087h+ZIl+pnJHlHEi14RzvR9w7De76lNG/DO3Pyjd1SKLRiEftg26jDzOw9+EXFc9XOSPMQ9BTttxysy8Kg+72HA9dOSNRExHXTkjURMR105I1ETEddOSNRExHXQTTw7ghNEB254mI69+oH6N6bA9yz8kgII4PLExH8EnGuGH5kmMz2TsbZ8kTEfw2nO4jA+08KS4xGXCJiP4gMdiLQmsDi5HMW/RRiADiH8YCBA0H/KP/8QAKxABAAEDAQcFAQADAQEAAAAAAREAITFREEFhcZGx8DBAUIGhIGDB0YDh/9oACAEBAAE/EP8A2YDbKC5/Ka5/KwC/dAJH/BuXtZYhDAKCIOgpYj8FYBowuL0HIM2LHOpQNCOP8EkRY5fdXpmATVmSqwBEonjWs0AQ6JkeDsQSEEdzUm+8kw/VBsIbBuNSwn/A/Da7Sh4CzOxomE51KGrArzTK/OVH+OHIaibFb1kSubRSzyqRk9zUkQ/4D4bX+ShWRZTvpbniUOJZZz0nk3ouSbOcW7ylvHVsKuXDZHNAJGfn/Da/0UFGRhrDgmAeFmaIQEG7fLfzJNpKHd2ko9TH9XMqcDNCOPnfDa+gUfBUsI4JWOYgbWv+hDzoxpbw8CZHg7EEhBHc1JvvJMP1QbCGwbjUsJ+c8Nr6RQcab4nQYTnUy4gXV4M/s5UEoJIBqJnYresiVzaKWeVSMnuakiH5rw2vqFCy0s2y5b3EocR7Rpek8rO3nFu8pbx1bCrlw2RzQCRn5jw2vqlBREUTCVZzIxDq/TQOMk9azfzJNpKHd2kpILhgLHOgzSPy/htfXKNpqUI4JR4jsCfUx9L861koBHRMjz2AQBHI0vbIpY4ViOpRdh96oZrHJSH/AEpeDqUHKH2nhtfYlBqrM7GgwnOr8VgCEsmV+bAgMZIYpJcNOKUI12/00hi2TQbKH3SNMinHPw4KClqmFgml/wDnS++b7GmrJhFehgN/s/Da+yKeF17FPliyBBic5NsAF3BZKWzB0VYAHeNCJZ9siQKVuDLuKKy5jcf9okIMAbBBdJ4daH+ebeiR6U4ZcB1pJeQv7Pw2vsinhdex6DSIRoh0exafN+HrQayb/UlzaKno2utK4u8GCpGbR7IyVFEitkUAOPK/21yhEbDrFKMAa1BaYV1cewdaRjRlXZBzzXkNNfp9mnI9n4bX2RTwuv8AiAg75TR0roqdl9zpQTHkMPTfsZCTIlBZczvP+VI6saH7qTA+uoF2kEhdxS4st75FWAm8rrtIUBZJd0sDnSOlbkI632tw2FeQ01+v2axez8Nr7Ip4XX/UAHKWX6ks1Dl9i8ub8PWhotIkibFLHuSmXHlf6az3pWUbIj6iNMik0u8OCjQ9W902tC8LPKaZGrhQIsjz/wBb8aZuEolXVdpXkNNfr9msXs/Da+yKeF1+hAchNdL9mfpbhU5hLsE8WB+8NsMJGBZKXVjvbAqwAO8aESz6CJApW4Mu4orLmNx/2iQgwBsMtMnh1q4aurPm/fopoESmv/hw/kryGmv1+zWL2fhtfZFPC6/RgDWNIkI1Gh4Btrg/7daDQ0F2OBkNoqeja60vF3gwUCTaP4MlRRIrZFADjyv9tcoRGxmYEqsAVDaYG6uPYOtMxYsDC0C33n+yvIaa/X7NYvZ+G19kU8Lr9OA0NpmhX1p+i/3HSggtMEdjISZEq/bKSuo+5MO5qRA0oErSCQu4pcWW98irATeV12kKhuj7WBzqRgtlCOPPZw9EryGmv1+zWL2fhtfZFPC6/VgBpSy9+BgajS+Abe4P+3WhotIkibGDFqVdKN7dqanCl2xRoere6bWECZpTQLtYy8SyHPc5X40yNpRKuq+kV5DTX6/ZrF7MXtx3tl5sBEDMHIWlqNAIR9fwuv14DmTbpQcWfparbCugTxY+l+H8gSiTQ61ctXVjzfv0U0TLqv8A4cPUK8hpr9fs1i9nKAbXrGAnOyQwFkC5Mfa/GozG2JQboZX5x9bwuv2EBarSJCND2Li0uC/D1qYrtxakHDskodO4GrKmh1p+NG4+kWOefWK8hpr9fs1i9mSm+k7KZAvTlCJ2G2BCJIlSbO6V7jvOJ0pdcMGSGoWe/qeF1+0gCPGavXK8hpr9fs1i9omANK3Jk3NFYcRvP+USEmEdgYWgMNC8UXdfZ60oJoTR6XhdftIAjxmr1yvIaa/X7NYvbIwmaXW7y4KNH1bXTamtmDI4mQqFByoILidx0pYLQCEdE9Dwuv2kAR4zV65XkNNfr9msXt0EhpBIHc0uDDa+BVgLvKybQEOWATwY+1+NKaJuiDgz9rcf78Lr9pAEeM1euV5DTX6/ZrF7kyBNMmt0UAOHK/2VyhE7BqNCEiVc4RSvce4dKXylgyfwH+fC6/aQBHjNXrleQ01+v2axe7RANK3Jk3NFYcRvP+USEmEdgRWgMNbnN7879nrSTGhNG3wuv2kAR4zV65XkNNfr9msXvUYTNLrd5cFGj6trptTGAtkjULnaoQHdBa47jidKesEKIRrwuv2kAR4zV65XkNNfr9msXvkEhpBIHc0uDDa+BVgLvKybZFEWAS4Mfa/GlTHUQ4Ble0gCPGavXK8hpr9fs1i+AMgTTJrdFADhyv8AZXKET/BbBiKfZAjxmr1wqAS0EJESYeWok7v9moB8EiAaWKMxhq2M3Ran5XJd3Js18NBWo5HiVDs7qgXQ5M86b5UMI4j7AR4zV6wEQYlfZ3vAmjbkWedM5stBBBU7EsI1aifD4RCG1TAFRODskyExMbGMYIKf7Y4NZ8kxXq/ZakRhIT1hHjNXqRoeksDVYDi1CwIDQvFn8nOgp1CQaAY2OzrKtCQ3jqUJDd8JkpKFuLnsx7ABJgTCcGtyMD/eDmLcqERUkA4JsKCvM96LzzScncGeadzwfVEeM1elNgohGgFS+GA8josft5USjLlxarK8XYoEqAb2pM9xBg+6DZQXDYKhKPhc/wDPIBkBs9U9zmQ1gwTIPGz+0IgjI76CUMHA4jUq6lUVeDnso8KbYjVYTl6Yjxmr0Algu0rCk4Z13mwUYaCLo89xwI2kod3eWj0c/wB3NqMDNAGPhs/98gJNDaXD1jlco7FDMbkjc4mw9oag4jkeJUOrlV6zH2h51NjYhHEfREeM1f2DUEJH2d7wJoCIJz7pnNloAILGzlFu9pbx1LirFy3VmgEB8Rn9DkB3xy8jUTFRTqAsjxMfh50gBl8zpkHnsQQQjoW7+TNXYicQ8Lk0iMJCf2I8Zq/lcOyWBqsBxahYUBk4Kz+TnUJfiAaAbFJ1lWubRCxyqRl97UEAfFZ/S5ARYG4TwTCcGsayA+A3luVCCqEA4JsPMuo0vSeZDTcZWP3Lc8H+hHjNW1sFShGgFS1WA5Dosfp5VkQZcLVZXi7FAlQDe1JnuIMH3QbKC4bBUMI+Mz+pyAYEbPVM3cyGpMlBlHjZj7oRJGRoJQwcDiNSnqVleLP6KLAMR+xYTl/Ajxmqglgu1M7dYR1/tg50YaRH6juOBG0lDu7y0ejn+7m1GBmgDHxuf1uQElrLCescrlDYhlG+lvOJs1xsBWo5HiUtniWPyOSzzot9DCN4OwARGRc9+94E0RAEx5umc2WixBs5RbvaW8dS4qxct1ZoBAfH5/X5Ad7cvI1EoMUQFkeO7u50gBZlc0GR57AFQC5QzsNhDMBGxSdZVrm0QscqkZfe1BAHyOf2PIGgkASaJhODQuEA7uHMW5UeipIQ5mxWfASqGXzfgqOkBkNgqGEfJ5/Z8gINSAAuNghB3nEKOsCi3ymf2vIAhfnRj5XP7XkAR2NGPlc/teQBHY0Y+Vz+15AEdjRj5XP7XkAR2NGPlc/teQBHY0Y+Vz+15AEdjRj5XNRiZyPaQBHY0Y+VcNEYEgcXYNQUhps2wlizSEomyGHW7OPsRHY0Y+WJqXnnRp7lkytgEARIR31vZktw/DmUobWOjX+jf1xHY0Y+WBBKmgFlDDzpwac3lEhB3jsJEEFp9NQiZW6drk9af2MMb7NTieqI7GjHzD8Jp21s3D6pNCLeZ5bYk1uEPrkKhR8pkFy/1vwpaExDK0R9MR2NGPmUEhpxMHUoCYm4cPugyZvvJtFZBagPHcOdSDE2Qw63Zx9IR2NGPmxISafkQwkNNDQtvDnXIMTsQAIQiWaynRm4fhzKnHjHRr/Rv6AjsaMfOtADNT1CzBh5lODTm8okIO8dhIggtDk1BdfVw4brk9az3zjPM1OP9COxox8+/CadtbNw+qTQi3meW1hv0iH1yFQs+Uy3yx9L8KUoMAhHifwI7GjH+AIJDTiYOpQExNw4fdBkzfeTbYKFiA8dw51ICWJEOt2cdoiZAwHKj/AhISafkQwkNNDQtvDnXIMTsAgCJCO+lEpNhNljBjdsYmAxvw/wVoAZqeoWYMPMqLabzkoLcDCw0Pjr0gdWsgKffFdf8HBgGkJehQH/AArDhRb/ANvf/9k=;" vertex="1" parent="1">
          <mxGeometry x="840" y="140" width="80" height="80" as="geometry" />
        </mxCell>
        <mxCell id="5ly0_uq5CfI01YCSIxFj-34" style="edgeStyle=orthogonalEdgeStyle;rounded=0;orthogonalLoop=1;jettySize=auto;html=1;entryX=1;entryY=0.5;entryDx=0;entryDy=0;" edge="1" parent="1" source="5ly0_uq5CfI01YCSIxFj-27" target="5ly0_uq5CfI01YCSIxFj-25">
          <mxGeometry relative="1" as="geometry" />
        </mxCell>
        <mxCell id="5ly0_uq5CfI01YCSIxFj-27" value="" style="points=[[0.35,0,0],[0.98,0.51,0],[1,0.71,0],[0.67,1,0],[0,0.795,0],[0,0.65,0]];verticalLabelPosition=bottom;sketch=0;html=1;verticalAlign=top;aspect=fixed;align=center;pointerEvents=1;shape=mxgraph.cisco19.user;fillColor=#005073;strokeColor=none;" vertex="1" parent="1">
          <mxGeometry x="1010" y="260" width="50" height="50" as="geometry" />
        </mxCell>
        <mxCell id="5ly0_uq5CfI01YCSIxFj-28" value="Developer" style="text;strokeColor=none;align=center;fillColor=none;html=1;verticalAlign=middle;whiteSpace=wrap;rounded=0;" vertex="1" parent="1">
          <mxGeometry x="1000" y="310" width="60" height="30" as="geometry" />
        </mxCell>
        <mxCell id="5ly0_uq5CfI01YCSIxFj-29" value="Terraform" style="text;strokeColor=none;align=center;fillColor=none;html=1;verticalAlign=middle;whiteSpace=wrap;rounded=0;" vertex="1" parent="1">
          <mxGeometry x="850" y="120" width="60" height="30" as="geometry" />
        </mxCell>
        <mxCell id="5ly0_uq5CfI01YCSIxFj-35" value="Terraform init&lt;div&gt;Terraform fmt&lt;/div&gt;&lt;div&gt;Terraform validate&lt;/div&gt;&lt;div&gt;Terraform apply&lt;/div&gt;" style="text;strokeColor=none;align=center;fillColor=none;html=1;verticalAlign=middle;whiteSpace=wrap;rounded=0;" vertex="1" parent="1">
          <mxGeometry x="830" y="215" width="120" height="30" as="geometry" />
        </mxCell>
        <mxCell id="5ly0_uq5CfI01YCSIxFj-37" value="" style="shape=actor;whiteSpace=wrap;html=1;" vertex="1" parent="1">
          <mxGeometry x="-60" y="200" width="40" height="60" as="geometry" />
        </mxCell>
        <mxCell id="5ly0_uq5CfI01YCSIxFj-38" style="edgeStyle=orthogonalEdgeStyle;rounded=0;orthogonalLoop=1;jettySize=auto;html=1;entryX=0.286;entryY=0.5;entryDx=0;entryDy=0;entryPerimeter=0;" edge="1" parent="1" source="5ly0_uq5CfI01YCSIxFj-37" target="5ly0_uq5CfI01YCSIxFj-11">
          <mxGeometry relative="1" as="geometry" />
        </mxCell>
        <mxCell id="5ly0_uq5CfI01YCSIxFj-39" value="&lt;span style=&quot;color: rgb(0, 0, 0); font-family: Helvetica; font-size: 12px; font-style: normal; font-variant-ligatures: normal; font-variant-caps: normal; font-weight: 400; letter-spacing: normal; orphans: 2; text-align: center; text-indent: 0px; text-transform: none; widows: 2; word-spacing: 0px; -webkit-text-stroke-width: 0px; white-space: normal; background-color: rgb(236, 236, 236); text-decoration-thickness: initial; text-decoration-style: initial; text-decoration-color: initial; float: none; display: inline !important;&quot;&gt;User&lt;/span&gt;" style="text;whiteSpace=wrap;html=1;" vertex="1" parent="1">
          <mxGeometry x="-60" y="260" width="50" height="40" as="geometry" />
        </mxCell>
        <mxCell id="5ly0_uq5CfI01YCSIxFj-40" value="Request to the Web App" style="text;strokeColor=none;align=center;fillColor=none;html=1;verticalAlign=middle;whiteSpace=wrap;rounded=0;" vertex="1" parent="1">
          <mxGeometry y="200" width="160" height="30" as="geometry" />
        </mxCell>
        <mxCell id="5ly0_uq5CfI01YCSIxFj-42" value="" style="endArrow=classic;html=1;rounded=0;entryX=1;entryY=0.75;entryDx=0;entryDy=0;exitX=0.286;exitY=0.65;exitDx=0;exitDy=0;exitPerimeter=0;" edge="1" parent="1" source="5ly0_uq5CfI01YCSIxFj-11" target="5ly0_uq5CfI01YCSIxFj-37">
          <mxGeometry width="50" height="50" relative="1" as="geometry">
            <mxPoint x="-30" y="380" as="sourcePoint" />
            <mxPoint x="20" y="330" as="targetPoint" />
          </mxGeometry>
        </mxCell>
        <mxCell id="5ly0_uq5CfI01YCSIxFj-43" value="Respond With Request Count" style="text;strokeColor=none;align=center;fillColor=none;html=1;verticalAlign=middle;whiteSpace=wrap;rounded=0;" vertex="1" parent="1">
          <mxGeometry x="10" y="245" width="180" height="30" as="geometry" />
        </mxCell>
        <mxCell id="5ly0_uq5CfI01YCSIxFj-44" value="Provision Cloud Infrastructure&amp;nbsp;&lt;div&gt;with Terraform&lt;/div&gt;" style="text;html=1;align=center;verticalAlign=middle;resizable=0;points=[];autosize=1;strokeColor=none;fillColor=none;" vertex="1" parent="1">
          <mxGeometry x="800" y="285" width="180" height="40" as="geometry" />
        </mxCell>
      </root>
    </mxGraphModel>
  </diagram>
</mxfile>
